# xmcd CD Database Entry
#
# Track frame offsets:
# 150
# 15888
# 48020
# 92992
# 136605
# 158742
# 200635
# 267315
# 301300
#
# Disc length: 4615 seconds
#
# Revision: 1
# Processed by: cddbd v1.4PL0 Copyright (c) Steve Scherf et al.
# Submitted via: tcd 2.0b
#
DISCID=67120509
DTITLE=Desconhecido - Desconhecido
DYEAR=1900
DGENRE=
TTITLE0=Trilha 1
TTITLE1=Trilha 2
TTITLE2=Trilha 3
TTITLE3=Trilha 4
TTITLE4=Trilha 5
TTITLE5=Trilha 6
TTITLE6=Trilha 7
TTITLE7=Trilha 8
TTITLE8=Trilha 9
EXTD=
EXTT0=
EXTT1=
EXTT2=
EXTT3=
EXTT4=
EXTT5=
EXTT6=
EXTT7=
EXTT8=
PLAYORDER=
